<?xml version="1.0" encoding="utf-8"?>
<!-- Generated by IcoMoon.io -->
<svg version="1.1" xmlns="http://www.w3.org/2000/svg" xmlns:xlink="http://www.w3.org/1999/xlink" width="560" height="68" viewBox="0 0 560 68">
<svg id="icon-calendar" width="32" height="32" viewBox="0 0 32 32" x="0" y="0">
<path d="M28 30h-24c-1.104 0-2-0.896-2-2v-21c0-1.104 0.896-2 2-2h2v1c0 1.657 1.343 3 3 3s3-1.343 3-3v-1h8v1c0 1.657 1.344 3 3 3s3-1.343 3-3v-1h2c1.104 0 2 0.896 2 2v21c0 1.104-0.896 2-2 2zM28 12h-24v16h24v-16zM13.069 19.829c0.197-0.314 0.296-0.646 0.296-0.993 0-0.773-0.416-1.16-1.248-1.16-0.723 0-1.414 0.287-2.074 0.861v-1.629c0.73-0.473 1.555-0.709 2.473-0.709 0.859 0 1.53 0.216 2.013 0.647s0.724 1.015 0.724 1.749c0 0.98-0.588 1.994-1.764 3.041l-1.729 1.535v0.035h3.41v1.535h-5.531v-1.441l2.408-2.303c0.484-0.464 0.825-0.853 1.022-1.168zM19.837 23.166c0.264-0.203 0.396-0.486 0.396-0.85 0-0.375-0.163-0.664-0.489-0.867s-0.774-0.305-1.345-0.305h-0.756v-1.418h0.697c1.094 0 1.641-0.363 1.641-1.090 0-0.684-0.42-1.025-1.26-1.025-0.562 0-1.109 0.182-1.641 0.545v-1.512c0.59-0.297 1.277-0.445 2.062-0.445 0.859 0 1.528 0.193 2.007 0.58s0.718 0.889 0.718 1.506c0 1.098-0.557 1.785-1.67 2.062v0.029c0.594 0.074 1.062 0.29 1.406 0.647s0.516 0.796 0.516 1.315c0 0.785-0.287 1.406-0.861 1.863s-1.367 0.686-2.379 0.686c-0.867 0-1.572-0.141-2.115-0.422v-1.611c0.562 0.41 1.219 0.615 1.969 0.615 0.472 0.002 0.84-0.1 1.104-0.303zM22.969 8c-1.088 0-1.969-0.881-1.969-1.969v-2.062c0-1.088 0.881-1.969 1.969-1.969s1.969 0.881 1.969 1.969v2.062c0 1.088-0.881 1.969-1.969 1.969zM8.969 8c-1.088 0-1.969-0.881-1.969-1.969v-2.062c0-1.088 0.881-1.969 1.969-1.969s1.969 0.881 1.969 1.969v2.062c0 1.088-0.882 1.969-1.969 1.969z"></path>
</svg>
<svg id="icon-chronometer" width="32" height="32" viewBox="0 0 32 32" x="48" y="0">
<path d="M28.054 18.571c0 6.933-5.62 12.554-12.554 12.554s-12.554-5.621-12.554-12.554c0-6.722 5.286-12.192 11.927-12.521v-2.166h-0.941c-0.555 0-1.005-0.45-1.005-1.005s0.45-1.004 1.005-1.004h3.012c0.555 0 1.005 0.449 1.005 1.004s-0.45 1.005-1.005 1.005h-1.066v2.153c6.757 0.2 12.176 5.729 12.176 12.534zM14.873 9.909v-2.291c-3.109 0.176-5.866 1.64-7.766 3.858l1.653 1.653-0.71 0.711-1.565-1.566c-1.274 1.798-2.032 3.987-2.032 6.359 0 0.106 0.015 0.251 0.015 0.251h2.432v1.005h-2.36c0.244 2.052 1.057 3.987 2.268 5.534l1.243-1.243 0.71 0.71-1.296 1.297c1.879 1.996 4.488 3.297 7.408 3.462v-2.729h1.004v2.742c2.989-0.102 5.67-1.393 7.599-3.41l-1.424-1.424 0.71-0.71 1.377 1.376c1.24-1.56 2.074-3.521 2.322-5.604h-2.55v-1.005h2.621c0.003-0.104 0.016-0.145 0.016-0.251 0-2.438-0.8-4.681-2.138-6.505l-1.648 1.648-0.71-0.71 1.726-1.725c-1.947-2.203-4.753-3.631-7.9-3.737v2.304h-1.005zM15.939 18.885h3.516c0.277 0 0.502 0.226 0.502 0.502 0 0.277-0.225 0.503-0.502 0.503h-4.018c-0.277 0-0.502-0.226-0.502-0.503v-6.967c0-0.277 0.225-0.502 0.502-0.502s0.502 0.225 0.502 0.502v6.465z"></path>
</svg>
<svg id="icon-safe" width="32" height="32" viewBox="0 0 32 32" x="96" y="0">
<path d="M27 29l-1.999-0.062v2.062h-3v-2h-11.938l-0.062 2h-3v-1.938l-2.001-0.062c-1.104 0-2-0.896-2-2v-24c0-1.104 0.896-2 2-2h22c1.104 0 2 0.896 2 2v24c0 1.104-0.896 2-2 2zM26 4h-20v3.958l-0.979-0.020v3.083h0.979v7.917h-1v3.062h1v4h20v-22zM25 25h-18v-3h1v-3.062h-1v-7.938h1l0.021-3.042h-1.021v-2.958h18v20zM14.562 10.562c-2.209 0-4 1.791-4 4s1.791 4 4 4c2.21 0 4-1.791 4-4s-1.79-4-4-4zM23.5 11.518c0-0.553-0.447-1-1-1-0.552 0-1 0.447-1 1 0 0.366 0.207 0.673 0.5 0.847v5.289c-0.293 0.174-0.5 0.48-0.5 0.847 0 0.552 0.448 1 1 1 0.553 0 1-0.448 1-1 0-0.394-0.232-0.726-0.562-0.889v-5.205c0.33-0.164 0.562-0.496 0.562-0.889zM14.5 16.25c-0.828 0-1.5-0.672-1.5-1.5 0-0.829 0.672-1.5 1.5-1.5 0.829 0 1.5 0.671 1.5 1.5 0 0.828-0.671 1.5-1.5 1.5z"></path>
</svg>
<svg id="icon-heart" width="32" height="32" viewBox="0 0 32 32" x="144" y="0">
<path d="M16.042 8.345c0 0-2-4.262-6.5-4.262-4.917 0-7.5 4.167-7.5 8.333 0 6.917 14 15.5 14 15.5s13.916-8.5 13.916-15.5c0-4.25-2.666-8.333-7.416-8.333s-6.5 4.262-6.5 4.262z"></path>
</svg>
<svg id="icon-anchor" width="32" height="32" viewBox="0 0 32 32" x="192" y="0">
<path d="M28.999 19.095l-1.136 7.729-2.299-2.23c-1.821 1.539-5.198 3.633-10.104 3.633-4.935 0-8.348-2.043-10.164-3.507l-2.098 2.035-1.198-7.659 7.893 1.162-2.175 2.111c1.526 1.133 3.92 2.499 6.304 2.499l-0.007-12.609c-1.741-0.606-2.994-2.207-2.994-4.105 0-2.418 2.019-4.378 4.51-4.378 2.49 0 4.51 1.96 4.51 4.378 0 1.927-1.292 3.545-3.074 4.129 0.011 2.46 0.051 12.632-0.004 12.632 2.28 0 4.634-1.484 6.167-2.684l-2.032-1.973 7.901-1.163zM17.856 8.083c0-1.246-1.041-2.257-2.325-2.257s-2.326 1.011-2.326 2.257c0 1.247 1.042 2.258 2.326 2.258s2.325-1.011 2.325-2.258z"></path>
</svg>
<svg id="icon-location-marina" width="20" height="20" viewBox="0 0 20 20" x="0" y="48">
<path d="M8 1.88v-1.88h2v16h10l-4 4h-14l-2-4h8v-2h-8v-0.26c3.736-3.009 6.529-7.050 7.955-11.69l0.045-0.17zM19.97 14h-9.97v-0.36c1.263-1.865 2.017-4.164 2.017-6.64s-0.753-4.775-2.043-6.682l0.027 0.042v-0.2c5.609 2.315 9.566 7.57 9.968 13.793l0.002 0.047z"></path>
</svg>
<svg id="icon-bookmark" width="20" height="20" viewBox="0 0 20 20" x="36" y="48">
<path d="M14 2v17l-4-4-4 4v-17c0-0.553 0.585-1.020 1-1h6c0.689-0.020 1 0.447 1 1z"></path>
</svg>
<svg id="icon-chevron-thin-right" width="20" height="20" viewBox="0 0 20 20" x="72" y="48">
<path d="M13.25 10l-7.141-7.42c-0.268-0.27-0.268-0.707 0-0.979 0.268-0.27 0.701-0.27 0.969 0l7.83 7.908c0.268 0.271 0.268 0.709 0 0.979l-7.83 7.908c-0.268 0.271-0.701 0.27-0.969 0s-0.268-0.707 0-0.979l7.141-7.417z"></path>
</svg>
<svg id="icon-chat" width="20" height="20" viewBox="0 0 20 20" x="108" y="48">
<path d="M5.8 12.2v-6.2h-3.8c-1.1 0-2 0.9-2 2v6c0 1.1 0.9 2 2 2h1v3l3-3h5c1.1 0 2-0.9 2-2v-1.82c-0.064 0.014-0.132 0.021-0.2 0.021l-7-0.001zM18 1h-9c-1.1 0-2 0.9-2 2v8h7l3 3v-3h1c1.1 0 2-0.899 2-2v-6c0-1.1-0.9-2-2-2z"></path>
</svg>
<svg id="icon-hand" width="20" height="20" viewBox="0 0 20 20" x="144" y="48">
<path d="M17.924 17.315c-0.057 0.174-0.193 0.367-0.416 0.432-0.161 0.047-5.488 1.59-5.652 1.633-0.469 0.125-0.795 0.033-1.009-0.156-0.326-0.287-4.093-2.85-8.845-3.092-0.508-0.025-0.259-1.951 1.193-1.951 0.995 0 3.904 0.723 4.255 0.371 0.271-0.272 0.394-1.879-0.737-4.683v0l-2.275-5.637c-0.216-0.535 0.044-1.143 0.578-1.359s1.145 0.043 1.359 0.578c0 0 1.791 4.438 1.986 4.919 0.193 0.48 0.431 0.662 0.69 0.562 0.231-0.088 0.279-0.242 0.139-0.709l-2.046-6.028c-0.186-0.546 0.106-1.138 0.652-1.324s1.141 0.106 1.325 0.652l1.946 5.732c0.172 0.504 0.354 0.768 0.642 0.646 0.173-0.073 0.161-0.338 0.115-0.569l-1.366-5.471c-0.14-0.561 0.201-1.127 0.761-1.267s1.125 0.2 1.266 0.761l1.26 5.042c0.184 0.741 0.353 1.008 0.646 0.935 0.299-0.073 0.285-0.319 0.244-0.522-0.095-0.475-0.872-4.328-0.872-4.328-0.103-0.515 0.23-1.015 0.744-1.118s1.014 0.23 1.116 0.743l0.948 4.711 0.001 0.001c0 0 0 0 0 0.001l0.568 2.825c0.124 0.533 0.266 1.035 0.45 1.527 1.085 2.889 0.519 5.564 0.334 6.143z"></path>
</svg>
<svg id="icon-magnifying-glass" width="20" height="20" viewBox="0 0 20 20" x="180" y="48">
<path d="M17.545 15.467l-3.779-3.779c0.57-0.935 0.898-2.035 0.898-3.21 0-3.417-2.961-6.377-6.378-6.377s-6.186 2.769-6.186 6.186c0 3.416 2.961 6.377 6.377 6.377 1.137 0 2.2-0.309 3.115-0.844l3.799 3.801c0.372 0.371 0.975 0.371 1.346 0l0.943-0.943c0.371-0.371 0.236-0.84-0.135-1.211zM4.004 8.287c0-2.366 1.917-4.283 4.282-4.283s4.474 2.107 4.474 4.474c0 2.365-1.918 4.283-4.283 4.283s-4.473-2.109-4.473-4.474z"></path>
</svg>
<svg id="icon-star" width="20" height="20" viewBox="0 0 20 20" x="216" y="48">
<path d="M10 1.3l2.388 6.722h6.412l-5.232 3.948 1.871 6.928-5.439-4.154-5.438 4.154 1.87-6.928-5.233-3.948h6.412l2.389-6.722z"></path>
</svg>
</svg>
