<?xml version="1.0" encoding="utf-8"?>
<!-- Generated by IcoMoon.io -->
<svg version="1.1" xmlns="http://www.w3.org/2000/svg" xmlns:xlink="http://www.w3.org/1999/xlink" width="1264" height="64" viewBox="0 0 1264 64">
<svg id="icon-wico-lighthouse" width="55" height="64" viewBox="0 0 55 64" x="0" y="0">
<path d="M27.403 2.489l-7.447 7.057v0.532h14.815v-0.532z"></path>
<path d="M37.77 23.070h-20.676c-0.041 0-0.075-0.034-0.075-0.075v-4.782c0-0.041 0.034-0.075 0.075-0.075h20.676c0.041 0 0.075 0.034 0.075 0.075v4.782c0 0.041-0.034 0.075-0.075 0.075z"></path>
<path d="M19.954 9.98h0.965v8.951h-0.965v-8.951z"></path>
<path d="M23.612 10.033h0.965v8.951h-0.965v-8.951z"></path>
<path d="M30.15 9.98h0.965v8.951h-0.965v-8.951z"></path>
<path d="M33.809 10.033h0.965v8.951h-0.965v-8.951z"></path>
<path d="M15.906 11.799c-0.047-0.083-0.123-0.143-0.214-0.167l-5.439-1.515c-0.19-0.052-0.384 0.060-0.437 0.248-0.052 0.188 0.059 0.383 0.248 0.436l5.435 1.512 0.1 0.015c0.159 0 0.299-0.107 0.342-0.261 0.025-0.091 0.012-0.185-0.034-0.268z"></path>
<path d="M15.55 13.084h-7.237c-0.196 0-0.355 0.159-0.355 0.355s0.159 0.355 0.355 0.355h7.237c0.196 0 0.355-0.159 0.355-0.355s-0.159-0.355-0.355-0.355z"></path>
<path d="M15.938 14.904c-0.053-0.187-0.249-0.297-0.438-0.245l-5.344 1.514c-0.092 0.026-0.168 0.086-0.214 0.169s-0.057 0.18-0.031 0.269c0.043 0.152 0.184 0.258 0.341 0.258l5.441-1.527c0.091-0.025 0.166-0.085 0.213-0.168s0.057-0.178 0.032-0.27z"></path>
<path d="M38.982 11.799c0.047-0.083 0.123-0.143 0.215-0.167l5.44-1.514c0.19-0.052 0.384 0.060 0.437 0.248 0.052 0.188-0.059 0.383-0.248 0.436l-5.435 1.512-0.1 0.015c-0.159 0-0.299-0.107-0.342-0.261-0.025-0.091-0.013-0.186 0.033-0.268z"></path>
<path d="M39.339 13.084h7.236c0.196 0 0.355 0.159 0.355 0.355s-0.159 0.355-0.355 0.355h-7.236c-0.196 0-0.355-0.159-0.355-0.355s0.159-0.355 0.355-0.355z"></path>
<path d="M38.95 14.904c0.053-0.187 0.249-0.297 0.438-0.245l5.344 1.514c0.092 0.026 0.168 0.086 0.214 0.169s0.057 0.18 0.031 0.269c-0.043 0.152-0.184 0.258-0.341 0.258l-5.441-1.527c-0.091-0.025-0.166-0.085-0.213-0.168s-0.057-0.178-0.032-0.27z"></path>
<path d="M35.705 21.946l-8.282 0.161-0.011 5.371c1.215 0.027 2.203 1.025 2.203 2.247v4.663h-2.218l-0.004 2.172-0.004-2.172h-2.276v-4.663c0-1.238 1.013-2.251 2.251-2.251 0.004 0 0.007 0.001 0.011 0.001l-0.011-5.368-8.282-0.161c0 0-4.635 38.87-4.583 39.156 0.040 0.221 0.281 0.382 1.608 0.402 0.772 0.012 10.508 0.001 11.286 0 0.777 0.001 10.514 0.012 11.286 0 1.327-0.020 1.568-0.181 1.608-0.402 0.052-0.285-4.583-39.156-4.583-39.156zM29.615 58.222h-4.503v-4.664c0-1.238 1.013-2.251 2.251-2.251s2.251 1.013 2.251 2.251v4.664zM29.615 46.305h-4.503v-4.664c0-1.238 1.013-2.251 2.251-2.251s2.251 1.013 2.251 2.251v4.664z"></path>
</svg>
<svg id="icon-wico-lifebuoy" width="55" height="64" viewBox="0 0 55 64" x="80" y="0">
<path d="M27.438 59.629c-5.7 0-11.059-2.22-15.090-6.251s-6.25-9.389-6.25-15.089 2.22-11.059 6.251-15.090c4.031-4.031 9.39-6.251 15.090-6.251s11.059 2.22 15.090 6.251 6.251 9.39 6.251 15.090-2.22 11.059-6.251 15.090c-4.031 4.031-9.39 6.25-15.090 6.25zM27.438 17.56c-5.537 0-10.742 2.156-14.658 6.072s-6.071 9.121-6.071 14.658c0 5.537 2.156 10.742 6.072 14.658s9.121 6.072 14.658 6.072c5.537 0 10.743-2.156 14.658-6.072s6.072-9.121 6.072-14.658c0-5.537-2.156-10.742-6.072-14.658s-9.121-6.072-14.658-6.072z"></path>
<path d="M13.086 23.337l-0.475-0.385 14.569-18.009 13.775 16.842-0.473 0.386-13.299-16.26z"></path>
<path d="M28.462 5.513c0 0.754-0.611 1.365-1.365 1.365s-1.365-0.611-1.365-1.365c0-0.754 0.611-1.365 1.365-1.365s1.365 0.611 1.365 1.365z"></path>
<path d="M29.159 17.49c0.002-0.036 0.005-0.072 0.005-0.108v0c0-0.935-0.751-1.7-1.669-1.7h-0.167c-0.919 0-1.669 0.765-1.669 1.7v0c0 0.048 0.003 0.095 0.007 0.142-4.112 0.357-6.442 1.561-6.442 1.561l4.4 9.678c0 0 1.664-0.538 3.872-0.538s3.872 0.716 3.872 0.716l4.283-9.739c0.001 0.001-2.162-1.418-6.492-1.712z"></path>
<path d="M29.159 59.485c0.002 0.036 0.005 0.072 0.005 0.108v0c0 0.935-0.751 1.7-1.669 1.7h-0.167c-0.919 0-1.669-0.765-1.669-1.7v0c0-0.048 0.003-0.095 0.007-0.142-4.112-0.357-6.442-1.562-6.442-1.562l4.4-9.678c0 0 1.664 0.538 3.872 0.538s3.872-0.716 3.872-0.716l4.283 9.739c0.001 0-2.162 1.418-6.492 1.712z"></path>
<path d="M48.435 40.209c0.036 0.002 0.072 0.005 0.108 0.005v0c0.935 0 1.7-0.751 1.7-1.669v-0.167c0-0.919-0.765-1.669-1.7-1.669v0c-0.048 0-0.095 0.003-0.142 0.007-0.357-4.112-1.562-6.441-1.562-6.441l-9.678 4.4c0 0 0.538 1.664 0.538 3.872s-0.716 3.872-0.716 3.872l9.739 4.283c0 0.001 1.418-2.162 1.712-6.492z"></path>
<path d="M6.44 40.209c-0.036 0.002-0.072 0.005-0.108 0.005v0c-0.935 0-1.7-0.751-1.7-1.669v-0.167c0-0.919 0.765-1.669 1.7-1.669v0c0.048 0 0.095 0.003 0.142 0.007 0.357-4.112 1.561-6.441 1.561-6.441l9.678 4.4c0 0-0.538 1.664-0.538 3.872s0.716 3.872 0.716 3.872l-9.739 4.283c0.001 0.001-1.418-2.162-1.712-6.492z"></path>
<path d="M27.438 48.99c-2.804 0-5.441-1.092-7.424-3.075s-3.075-4.619-3.075-7.424 1.092-5.441 3.075-7.424c1.983-1.983 4.619-3.075 7.424-3.075s5.441 1.092 7.424 3.075c1.983 1.983 3.075 4.619 3.075 7.424s-1.092 5.441-3.075 7.424c-1.983 1.983-4.619 3.075-7.424 3.075zM27.438 28.293c-2.724 0-5.285 1.061-7.211 2.987s-2.987 4.487-2.987 7.211 1.061 5.285 2.987 7.211c1.926 1.926 4.487 2.987 7.211 2.987s5.285-1.061 7.211-2.987c1.926-1.926 2.987-4.487 2.987-7.211s-1.061-5.285-2.987-7.211c-1.926-1.927-4.487-2.987-7.211-2.987z"></path>
</svg>
<svg id="icon-wico-cap" width="55" height="64" viewBox="0 0 55 64" x="160" y="0">
<path d="M27.576 16.198c0 0.251-0.215 0.454-0.481 0.454s-0.481-0.203-0.481-0.454c0-0.251 0.215-0.454 0.481-0.454s0.481 0.203 0.481 0.454z"></path>
<path d="M51.62 18.364c-1.314-0.657-23.616-8.047-24.3-8.047s-22.987 7.39-24.3 8.047c-2.309 1.154-2.804 4.288-2.309 6.267 0.381 1.524 3.012 6.081 4.202 8.095h44.817c1.189-2.014 3.82-6.571 4.202-8.095 0.494-1.979-0.001-5.112-2.31-6.267zM32.263 23.568c-0.095-0.015-0.095 0.356-0.205 0.619s-0.347 0.914-1.578 1.982-2.682 1.099-2.903 1.208c-0.221 0.108-0.457 0.712-0.457 0.712s-0.3-0.635-0.474-0.681c-0.174-0.046-1.625-0.294-3.171-1.378s-1.672-2.462-1.751-2.493c-0.079-0.031-0.41 0.17-0.41 0.17s0.113-1.778 0.174-1.718c0.063 0.062 0.197 0.433 0.395 0.712 0.284 0.402 0.678 0.774 0.678 0.774s-0.347 0.015-0.41 0.015 0.063 0.387 0.315 0.666c0.449 0.495 2.098 1.455 2.603 1.657s0.899 0.155 1.105-0.093 0.474-4.25 0.474-4.25 0.062-1.324 0.047-1.765c-0.024-0.72-0.071-1.068-0.308-1.162-0.233-0.092-1.656 0.046-1.656 0.046l-0.024-0.859c0 0 1.538 0.232 1.822 0.023 0.137-0.101 0.148-0.307 0.137-0.445-0.48-0.166-0.824-0.6-0.824-1.111 0-0.654 0.562-1.185 1.254-1.185s1.254 0.53 1.254 1.185c0 0.52-0.355 0.96-0.848 1.119-0.009 0.137 0.004 0.338 0.138 0.436 0.284 0.209 1.822-0.023 1.822-0.023l-0.024 0.859c0 0-1.423-0.138-1.656-0.046-0.236 0.093-0.284 0.442-0.308 1.162-0.014 0.441 0.047 1.765 0.047 1.765s0.040 1.122 0.102 1.572c0.063 0.449 0.142 2.385 0.41 2.663 0.184 0.191 0.489 0.511 2.035-0.341s1.846-1.765 1.799-1.827c-0.047-0.062-0.442-0.015-0.442-0.015s0.298-0.24 0.505-0.526c0.268-0.372 0.458-0.867 0.552-0.867s0.189 0.604 0.205 0.914c0.016 0.31 0.016 0.852 0.016 0.852s-0.348-0.309-0.443-0.325z"></path>
<path d="M14.138 41.32h-8.763l-0.031 2.049h43.951l-0.14-9.090h-43.672l-0.035 2.268c0.129-0.094 0.286-0.15 0.457-0.15h3.762c0.429 0 0.776 0.347 0.776 0.776s-0.347 0.776-0.776 0.776h-3.762c-0.18 0-0.345-0.062-0.476-0.164l-0.031 1.981h8.739c0.429 0 0.776 0.347 0.776 0.776s-0.347 0.778-0.776 0.778z"></path>
<path d="M5.595 44.922c0.646 1.081 2.555 3.633 6.66 4.779 6.143 1.714 13.266 1.696 15.065 1.66 1.799 0.036 8.922 0.054 15.065-1.66 4.104-1.145 6.013-3.698 6.66-4.779h-43.45z"></path>
</svg>
<svg id="icon-wico-compass" width="55" height="64" viewBox="0 0 55 64" x="240" y="0">
<path d="M27.736 57.026c-13.787 0-25.005-11.217-25.005-25.005s11.217-25.005 25.005-25.005 25.005 11.218 25.005 25.006-11.217 25.004-25.005 25.004zM27.736 9.961c-12.164 0-22.060 9.896-22.060 22.060s9.896 22.060 22.060 22.060 22.060-9.896 22.060-22.060-9.896-22.060-22.060-22.060z"></path>
<path d="M24.248 29.025l-7.37 14.978 14.286-8.676 7.691-15.64-14.607 9.339zM21.048 39.445l4.538-9.223 0.166-0.107 4.453 3.24-0.371 0.754-8.786 5.336z"></path>
</svg>
<svg id="icon-wico-badge" width="55" height="64" viewBox="0 0 55 64" x="320" y="0">
<path d="M46.485 1.244h-38.046c-0.080 0.328-0.135 0.668-0.135 1.029 0 1.77 1.036 3.249 2.378 3.509v18.354l5.387 4.652v-22.965h3.795v26.244l2.293 1.98c-5.433 2.038-9.3 7.279-9.3 13.423 0 7.916 6.417 14.333 14.333 14.333s14.333-6.417 14.333-14.333c0-6.188-3.922-11.46-9.415-13.467l2.614-2.159v-26.021h3.795v22.886l5.535-4.572v-18.327c1.432-0.152 2.567-1.684 2.567-3.536 0-0.36-0.056-0.701-0.135-1.029zM23.482 5.823h6.879v27.666c-1.020-0.23-2.081-0.353-3.17-0.353-1.283 0-2.526 0.169-3.709 0.485v-27.799zM39.088 47.47c0 6.571-5.327 11.897-11.898 11.897s-11.898-5.327-11.898-11.897 5.327-11.897 11.898-11.897 11.898 5.326 11.898 11.897z"></path>
<path d="M27.397 37.349l2.361 7.268h7.642l-6.183 4.492 2.362 7.268-6.183-4.492-6.183 4.492 2.361-7.268-6.182-4.492h7.642z"></path>
</svg>
<svg id="icon-wico-anchor" width="55" height="64" viewBox="0 0 55 64" x="400" y="0">
<path d="M54.058 39.035c-0.074-1.458-0.52-4.3-0.965-4.3s-1.337 2.332-2.599 4.082c-0.973 1.348-2.376 2.478-2.376 2.478s1.857-0.219 2.079 0.073c0.223 0.292-1.188 4.592-8.466 8.6s-8.713 2.504-9.58 1.604c-1.262-1.312-1.634-10.422-1.931-12.536s-0.483-7.398-0.483-7.398-0.291-6.233-0.223-8.309c0.111-3.389 0.334-5.029 1.448-5.466 1.099-0.431 7.798 0.219 7.798 0.219l0.111-4.045c0 0-7.241 1.093-8.577 0.109-0.632-0.465-0.693-1.407-0.649-2.055 2.321-0.751 3.991-2.824 3.991-5.271-0.001-3.079-2.644-5.576-5.905-5.576s-5.904 2.497-5.904 5.576c0 2.405 1.616 4.449 3.877 5.231 0.049 0.648-0.001 1.619-0.646 2.094-1.337 0.984-8.577-0.109-8.577-0.109l0.111 4.045c0 0 6.698-0.65 7.798-0.219 1.114 0.437 1.337 2.077 1.448 5.466 0.068 2.076-0.223 8.309-0.223 8.309s-1.262 18.841-2.228 20.007c-0.965 1.166-2.822 1.385-5.198 0.437s-10.142-5.467-12.254-7.798c-1.188-1.312-1.782-3.134-1.485-3.134s1.931-0.073 1.931-0.073-1.857-1.749-3.193-3.644c-0.928-1.314-1.56-3.061-1.857-3.352-0.283-0.277-0.817 8.091-0.817 8.091s1.56-0.948 1.931-0.802 0.965 6.632 8.243 11.734c7.278 5.102 14.11 6.268 14.927 6.486s2.228 3.207 2.228 3.207 1.114-2.843 2.154-3.353c1.040-0.51 7.872-0.656 13.665-5.685s6.907-8.090 7.426-9.329c0.52-1.239 0.52-2.988 0.965-2.916s2.079 1.531 2.079 1.531 0-2.551-0.075-4.009zM27.732 4.684c1.249 0 2.262 0.956 2.262 2.136s-1.013 2.136-2.262 2.136c-1.249 0-2.262-0.956-2.262-2.136s1.013-2.136 2.262-2.136z"></path>
</svg>
</svg>
